<svg width="34" height="25" viewBox="0 0 34 25" fill="none" xmlns="http://www.w3.org/2000/svg">
<path d="M30.3043 0H3.69565C1.65812 0 0 1.64951 0 3.67647V21.3235C0 23.3505 1.65812 25 3.69565 25H30.3043C32.3419 25 34 23.3505 34 21.3235V3.67647C34 1.64951 32.3419 0 30.3043 0ZM21.3496 12.4986L32.2521 2.64356C32.4188 2.95349 32.5224 3.30171 32.5224 3.67703V21.3241C32.5224 21.6994 32.4188 22.0476 32.2521 22.3576L21.3496 12.4997V12.4986ZM30.3043 1.47059C30.6079 1.47059 30.8969 1.53214 31.1606 1.64237L18.4898 13.0969C17.6533 13.856 16.345 13.8557 15.5094 13.0949L2.83925 1.64186C3.10295 1.53162 3.39195 1.47007 3.69551 1.47007L30.3043 1.47059ZM1.74857 22.3571C1.58194 22.0472 1.47827 21.699 1.47827 21.3237V3.67661C1.47827 3.3013 1.58194 2.95308 1.74857 2.64314L12.6511 12.4982L1.74857 22.356V22.3571ZM3.69565 23.5296C3.39208 23.5296 3.10308 23.468 2.83939 23.3578L13.7497 13.4922L14.5127 14.1824C15.2103 14.8173 16.1054 15.1341 17.0004 15.1341C17.8958 15.1341 18.7886 14.8176 19.4848 14.1843L20.2501 13.4925L31.1603 23.3581C30.8966 23.4683 30.6076 23.5299 30.3041 23.5299H3.69537L3.69565 23.5296Z" fill="black"/>
</svg>
