<svg width="34" height="38" viewBox="0 0 34 38" fill="none" xmlns="http://www.w3.org/2000/svg">
<path d="M26.8268 37.9216C25.3945 38.1135 23.9384 37.952 22.5782 37.4502C19.5938 36.3127 16.8314 34.6301 14.4231 32.4832C11.3885 29.88 8.63678 26.6573 5.76429 22.3403C4.09643 19.884 2.63464 17.2853 1.39434 14.5727C0.545793 12.787 0.0708762 10.837 0 8.84931C0.001283 7.1103 0.490859 5.40896 1.40971 3.95173C2.32827 2.49476 3.63663 1.34427 5.17567 0.640456C5.63548 0.446671 6.09529 0.298484 6.53664 0.154009L6.61387 0.131211C7.13167 -0.0413658 7.68871 -0.0437478 8.20783 0.124319C8.72691 0.292655 9.18289 0.622961 9.51257 1.06993C10.6088 2.38479 11.7123 3.69591 12.8231 5.00337L14.7541 7.31393C15.2691 7.92947 15.7805 8.54531 16.3026 9.14943C16.6921 9.56669 16.9474 10.098 17.0337 10.6708C17.1199 11.2434 17.0331 11.8295 16.785 12.3493C16.0727 14.1024 14.8434 15.5784 13.2721 16.5677C15.1334 18.9353 16.9249 21.1928 18.9186 23.2945C18.9958 23.1956 19.0767 23.097 19.1613 23.0018C20.347 21.6199 21.9168 20.6496 23.6563 20.2236C24.1466 20.0852 24.6652 20.095 25.1504 20.252C25.6354 20.4089 26.0667 20.7063 26.3931 21.109L26.5806 21.3333C28.8222 24.0165 31.0671 26.6969 33.3162 29.3751C33.67 29.782 33.8986 30.2881 33.9733 30.8294C34.048 31.3707 33.9651 31.9229 33.7357 32.4155C33.1566 33.8812 32.2124 35.1626 30.9992 36.1296C29.786 37.0967 28.3461 37.7145 26.8268 37.9216ZM7.38939 2.31216C7.35141 2.31693 7.31447 2.32701 7.27905 2.34238L7.20182 2.36518C6.78615 2.49825 6.3961 2.62364 6.032 2.77952C3.85816 3.71054 2.19188 6.35559 2.23963 8.80323C2.30249 10.472 2.70765 12.1079 3.42764 13.603C4.61231 16.1959 6.00763 18.68 7.59929 21.0287C10.3581 25.1673 12.9771 28.2493 15.8463 30.7006C18.0532 32.671 20.585 34.216 23.3208 35.2612C24.9081 35.8752 26.6641 35.8309 28.2207 35.1374C29.7771 34.4436 31.0137 33.1548 31.6707 31.5406C31.8252 31.1605 31.7554 31.0505 31.623 30.8909C29.3668 28.2103 27.1167 25.5299 24.873 22.8491L24.6854 22.6248C24.5715 22.4527 24.3542 22.3902 24.1705 22.4763C22.8695 22.7857 21.6957 23.5105 20.8158 24.5477C20.6085 24.7906 20.4135 25.0443 20.2308 25.3077L19.9144 25.7449L19.1493 26.7711L18.2482 25.8777C15.6954 23.3315 13.4661 20.4775 11.2775 17.7185L9.84286 15.8981L11.0714 15.1381C11.1612 15.0787 11.2549 15.0254 11.3511 14.9785C12.8791 14.2823 14.0866 13.002 14.7206 11.4061C14.8756 11.1736 14.834 10.8576 14.6249 10.6763C14.0879 10.0607 13.5655 9.43355 13.0469 8.80656L11.1194 6.52621C10.0158 5.214 8.9099 3.89785 7.80143 2.57763C7.61386 2.33826 7.49972 2.29679 7.38939 2.31216Z" fill="black"/>
</svg>
